<svg width="96" height="97" viewBox="0 0 96 97" fill="none" xmlns="http://www.w3.org/2000/svg">
<path fill-rule="evenodd" clip-rule="evenodd" d="M85.8441 48.6907C85.8413 49.1632 85.9935 49.6249 86.2883 49.9942L92.2127 57.4156C92.5498 57.8361 92.7834 58.3298 92.8947 58.8571C93.006 59.3844 92.9918 59.9305 92.8533 60.4513C91.8007 64.4035 90.229 68.1988 88.1795 71.7383C87.9111 72.2021 87.5381 72.5968 87.0902 72.8909C86.6423 73.185 86.1319 73.3705 85.5996 73.4324L76.0943 74.5516C75.6293 74.6063 75.1999 74.8241 74.8706 75.1569C74.7844 75.244 74.6974 75.331 74.6098 75.4176C74.2742 75.7496 74.0561 76.1836 74.0039 76.6528L72.9496 86.1254C72.8881 86.6573 72.7034 87.1674 72.41 87.6153C72.1166 88.0632 71.7228 88.4364 71.2598 88.7053C67.7217 90.7586 63.926 92.3318 59.9728 93.3834C59.4523 93.5225 58.9064 93.5374 58.3792 93.4268C57.8519 93.3163 57.3579 93.0835 56.9371 92.7471L49.4947 86.7899C49.1251 86.4941 48.6626 86.3413 48.1892 86.3441C48.0583 86.3449 47.9273 86.3449 47.7964 86.3441C47.3239 86.3413 46.8622 86.4935 46.4929 86.7883L39.0715 92.7127C38.651 93.0498 38.1573 93.2834 37.63 93.3947C37.1027 93.506 36.5566 93.4918 36.0358 93.3533C32.0836 92.3007 28.2883 90.729 24.7488 88.6795C24.285 88.4111 23.8903 88.0381 23.5962 87.5902C23.3021 87.1423 23.1166 86.6319 23.0547 86.0996L21.9473 76.5921C21.8932 76.1285 21.6774 75.6997 21.3458 75.3712C21.2573 75.2836 21.169 75.1952 21.0807 75.1061C20.7502 74.7723 20.3179 74.5562 19.851 74.5043L10.3746 73.4496C9.84275 73.3881 9.33257 73.2034 8.88469 72.91C8.43681 72.6166 8.06359 72.2228 7.79474 71.7598C5.74323 68.2208 4.17013 64.4254 3.11656 60.4728C2.9775 59.9523 2.96265 59.4064 3.07318 58.8792C3.18371 58.3519 3.41655 57.8579 3.75293 57.4371L9.71797 49.9698C10.0011 49.6154 10.1553 49.1752 10.1553 48.7216V48.2652C10.1553 47.8118 10.0013 47.3718 9.71838 47.0174L3.77443 39.5715C3.43731 39.151 3.2037 38.6573 3.09241 38.13C2.98113 37.6027 2.99529 37.0566 3.13376 36.5358C4.18645 32.5836 5.75808 28.7883 7.80764 25.2488C8.07599 24.785 8.449 24.3903 8.89691 24.0962C9.34482 23.8021 9.85526 23.6166 10.3875 23.5547L19.893 22.4635C20.3578 22.4101 20.7879 22.194 21.1172 21.8616C21.2044 21.7737 21.2923 21.6858 21.3809 21.5981C21.7148 21.2674 21.9308 20.835 21.9827 20.368L23.0375 10.8746C23.099 10.3428 23.2837 9.83257 23.5771 9.38469C23.8705 8.93681 24.2643 8.56359 24.7273 8.29474C28.2663 6.24323 32.0617 4.67013 36.0143 3.61656C36.5348 3.4775 37.0807 3.46265 37.6079 3.57318C38.1352 3.68371 38.6292 3.91655 39.05 4.25293L46.5173 10.218C46.8717 10.5011 47.3119 10.6553 47.7655 10.6553H48.2219C48.6754 10.6553 49.1153 10.5013 49.4697 10.2184L56.9156 4.27443C57.3364 3.93805 57.8304 3.70521 58.3577 3.59468C58.8849 3.48414 59.4308 3.499 59.9513 3.63806C63.9039 4.68747 67.6995 6.25775 71.2383 8.30764C71.7021 8.57599 72.0968 8.949 72.3909 9.39691C72.685 9.84482 72.8705 10.3553 72.9324 10.8875L74.0516 20.3928C74.1063 20.8578 74.3241 21.2872 74.6569 21.6165C74.744 21.7027 74.831 21.7897 74.9176 21.8773C75.2496 22.2129 75.6836 22.431 76.1528 22.4832L85.6254 23.5375C86.1573 23.599 86.6674 23.7837 87.1153 24.0771C87.5632 24.3705 87.9364 24.7643 88.2053 25.2273C90.2568 28.7663 91.8299 32.5617 92.8834 36.5143C93.0225 37.0348 93.0374 37.5807 92.9268 38.1079C92.8163 38.6352 92.5835 39.1292 92.2471 39.55L86.2899 46.9924C85.9941 47.362 85.8413 47.8245 85.8441 48.2979C85.8449 48.4288 85.8449 48.5598 85.8441 48.6907ZM48 69.5C59.598 69.5 69 60.098 69 48.5C69 36.902 59.598 27.5 48 27.5C36.402 27.5 27 36.902 27 48.5C27 60.098 36.402 69.5 48 69.5Z" fill="#FF6394"/>
<path d="M39 49.5L45 55.5L58 42.5" stroke="#5ED8D9" stroke-width="6" stroke-linecap="round" stroke-linejoin="round"/>
</svg>
